<?xml version="1.0" encoding="UTF-8" standalone="no"?>
<!-- Created with Inkscape (http://www.inkscape.org/) -->

<svg
   xmlns:dc="http://purl.org/dc/elements/1.1/"
   xmlns:cc="http://creativecommons.org/ns#"
   xmlns:rdf="http://www.w3.org/1999/02/22-rdf-syntax-ns#"
   xmlns:svg="http://www.w3.org/2000/svg"
   xmlns="http://www.w3.org/2000/svg"
   xmlns:sodipodi="http://sodipodi.sourceforge.net/DTD/sodipodi-0.dtd"
   xmlns:inkscape="http://www.inkscape.org/namespaces/inkscape"
   width="44.837193mm"
   height="44.459217mm"
   viewBox="0 0 44.837193 44.459217"
   version="1.1"
   id="svg8"
   inkscape:version="0.92.1 r15371"
   sodipodi:docname="i1.svg">
  <defs
     id="defs2" />
  <sodipodi:namedview
     id="base"
     pagecolor="#ffffff"
     bordercolor="#666666"
     borderopacity="1.0"
     inkscape:pageopacity="0.0"
     inkscape:pageshadow="2"
     inkscape:zoom="0.7"
     inkscape:cx="-166.35016"
     inkscape:cy="-60.995237"
     inkscape:document-units="mm"
     inkscape:current-layer="layer1"
     showgrid="false"
     fit-margin-top="0"
     fit-margin-left="0"
     fit-margin-right="0"
     fit-margin-bottom="0"
     inkscape:window-width="1536"
     inkscape:window-height="793"
     inkscape:window-x="-8"
     inkscape:window-y="-8"
     inkscape:window-maximized="1" />
  <metadata
     id="metadata5">
    <rdf:RDF>
      <cc:Work
         rdf:about="">
        <dc:format>image/svg+xml</dc:format>
        <dc:type
           rdf:resource="http://purl.org/dc/dcmitype/StillImage" />
        <dc:title></dc:title>
      </cc:Work>
    </rdf:RDF>
  </metadata>
  <g
     inkscape:label="Layer 1"
     inkscape:groupmode="layer"
     id="layer1"
     transform="translate(-91.541228,-199.74213)">
    <ellipse
       style="opacity:1;fill:#d8bb8e;fill-opacity:1;stroke:#ffffff;stroke-width:0.2842817;stroke-miterlimit:4;stroke-dasharray:none;stroke-opacity:1"
       id="path4485"
       cx="113.95982"
       cy="221.97174"
       rx="22.276455"
       ry="22.087467" />
    <ellipse
       style="opacity:1;fill:#d8bb8e;fill-opacity:1;stroke:#ffffff;stroke-width:0.25600541;stroke-miterlimit:4;stroke-dasharray:none;stroke-opacity:1"
       id="path4485-9"
       cx="113.67635"
       cy="222.16071"
       rx="19.928242"
       ry="20.022736" />
    <path
       style="fill:#ffffff;fill-opacity:1;stroke-width:0.23826686"
       d="m 121.37631,235.6674 c -0.26255,-0.93615 -1.64548,-2.53011 -2.19513,-2.53011 -0.56091,0 -0.15527,-0.93767 0.59933,-1.38544 0.79045,-0.46905 1.45993,-1.47252 1.64575,-2.46678 0.12918,-0.69122 1.07522,-0.74411 1.26311,-0.0706 0.27183,0.97442 0.17928,1.35469 -0.32974,1.35469 -0.26748,0 -0.48632,0.11892 -0.48632,0.26426 0,0.14535 -0.39107,0.61837 -0.86903,1.05118 l -0.86903,0.78691 0.73444,0.59335 c 0.40396,0.32634 0.80296,0.80058 0.8867,1.05388 0.13471,0.40752 0.27319,0.33244 1.20293,-0.65228 0.6157,-0.6521 0.94607,-1.17558 0.79799,-1.26438 -0.13899,-0.0834 -0.18403,-0.32339 -0.10003,-0.53345 0.13954,-0.34912 0.21571,-0.35063 0.88651,-0.0175 0.40363,0.2004 0.73387,0.497 0.73387,0.65912 0,0.16212 -0.48066,0.68052 -1.06813,1.15201 -0.71821,0.57641 -1.17625,1.18467 -1.3982,1.85679 -0.45832,1.38795 -1.06961,1.45117 -1.43498,0.14843 z m -7.69731,-2.01992 c -0.68815,-0.40891 -12.22375,-13.04771 -12.22741,-13.39675 -0.004,-0.43038 1.55784,-3.11196 1.94797,-3.34345 0.54755,-0.32491 0.48492,0.65461 -0.1035,1.61862 -0.34803,0.57018 -0.63278,1.09678 -0.63278,1.17022 0,0.0734 1.42251,0.13353 3.16114,0.13353 1.73863,0 3.16114,-0.042 3.16114,-0.0935 0,-0.1108 -2.94825,-5.10647 -3.11384,-5.27622 -0.0627,-0.0642 -0.16517,0.0216 -0.22787,0.19077 -0.0627,0.16912 -0.36798,0.58936 -0.67839,0.93387 -0.90045,0.99933 -1.01878,0.11939 -0.1704,-1.26701 l 0.69866,-1.1417 h 8.48577 8.48577 l 2.00434,3.26854 c 1.10241,1.79769 2.0086,3.47866 2.01378,3.73547 0.005,0.28774 -2.28569,2.9309 -5.97094,6.88729 -3.28919,3.5312 -6.11172,6.49235 -6.27227,6.58035 -0.16055,0.088 -0.41308,0.088 -0.56116,0 z m 2.45164,-8.58852 c 1.14575,-3.74966 1.24774,-4.25253 0.90466,-4.46032 -0.30301,-0.18351 -0.32471,-0.30586 -0.10035,-0.56544 0.22896,-0.26491 -0.0257,-0.84471 -1.27121,-2.89392 -0.85666,-1.40946 -1.63134,-2.54515 -1.7215,-2.52378 -0.0901,0.0214 -0.84685,1.17705 -1.68154,2.56814 l -1.51762,2.52928 2.29847,0.067 c 2.0178,0.0589 2.28877,0.11591 2.21903,0.46694 -0.0664,0.33413 -0.4608,0.41912 -2.39777,0.51666 l -2.31832,0.11674 1.70541,5.59551 1.70543,5.59553 0.44198,-1.39311 c 0.24308,-0.76622 1.02307,-3.29487 1.73331,-5.61923 z m -3.72939,4.98488 c -0.24235,-0.80254 -0.97271,-3.21892 -1.62305,-5.36975 l -1.18242,-3.91057 h -3.3623 -3.36229 l 0.56475,0.67185 c 0.642,0.76377 9.29326,10.06764 9.36145,10.06764 0.0244,0 -0.1538,-0.65661 -0.39614,-1.45917 z m 7.77696,-3.91057 c 2.31875,-2.50394 4.37693,-4.73647 4.57376,-4.96119 0.33809,-0.386 0.17116,-0.40847 -3.02335,-0.407 l -3.3812,10e-4 -1.18382,3.90902 c -2.35016,7.76036 -2.1532,6.98713 -1.64771,6.46837 0.24553,-0.25199 2.34357,-2.50682 4.66232,-5.01077 z m 5.09637,-6.47872 c -0.001,-0.0963 -0.70029,-1.31931 -1.5525,-2.71778 -1.52967,-2.51017 -1.55414,-2.53554 -1.91322,-1.98448 -0.76678,1.17674 -2.85354,4.66337 -2.85354,4.76778 0,0.0603 1.42251,0.10952 3.16115,0.10952 1.73863,0 3.15979,-0.0787 3.15811,-0.1751 z m -13.64886,-3.09344 1.48331,-2.45141 -3.06742,-0.0656 c -1.68707,-0.0361 -3.11904,-0.016 -3.18218,0.0446 -0.0631,0.0606 0.58092,1.26556 1.43122,2.67768 0.85029,1.41211 1.61479,2.49517 1.69888,2.40679 0.0841,-0.0884 0.82039,-1.26383 1.63619,-2.61211 z m 8.28701,-0.18869 c 0.7061,-1.19525 1.2321,-2.22283 1.16889,-2.28352 -0.0632,-0.0606 -1.4845,-0.0808 -3.15839,-0.0448 l -3.04345,0.0656 1.57982,2.63956 c 1.39388,2.32888 1.6145,2.58993 1.87455,2.21794 0.16212,-0.2319 0.87247,-1.39954 1.57858,-2.59478 z m 5.12462,-1.55499 c -0.12553,-0.31699 -0.45109,-0.70997 -0.72348,-0.8733 -0.62175,-0.37281 -0.63864,-1.02839 -0.0344,-1.33883 0.25342,-0.13022 0.57599,-0.55415 0.71685,-0.94208 0.30456,-0.83884 0.64707,-0.89858 1.03203,-0.18003 0.1548,0.28891 0.56586,0.81799 0.91349,1.17571 l 0.63205,0.65041 -0.6408,0.51693 c -0.35246,0.28431 -0.71233,0.75331 -0.79974,1.04223 -0.2108,0.69677 -0.81085,0.66883 -1.0959,-0.051 z m 0.84699,-1.28955 c 0.082,-0.12739 0.0529,-0.39668 -0.0647,-0.59842 -0.19088,-0.32748 -0.24668,-0.32877 -0.52043,-0.0121 -0.30764,0.3559 -0.17971,0.84211 0.22157,0.84211 0.11796,0 0.28156,-0.10417 0.36357,-0.23161 z m -23.21958,-1.28214 c -0.13456,-0.33981 -0.24466,-0.70588 -0.24466,-0.81346 0,-0.10755 -0.41034,-0.52006 -0.91186,-0.91657 l -0.91187,-0.72095 0.7839,-0.64413 c 0.43114,-0.35429 0.95237,-1.03813 1.15829,-1.51964 0.47006,-1.09918 0.9763,-1.118 1.34344,-0.0499 0.15608,0.45408 0.60227,1.05166 0.99151,1.32797 0.8594,0.61004 0.90447,1.16845 0.12659,1.56815 -0.31963,0.16425 -0.7153,0.57597 -0.87925,0.91496 -0.57336,1.18541 -0.6433,1.2896 -0.92634,1.38019 -0.1568,0.0502 -0.39518,-0.1868 -0.52975,-0.52661 z m 1.11875,-3.03398 -0.55868,-0.57879 -0.56633,0.57879 -0.56634,0.57879 0.56634,0.5788 0.56633,0.57879 0.55868,-0.57879 0.55869,-0.5788 z"
       id="path4498"
       inkscape:connector-curvature="0" />
  </g>
</svg>
