<?xml version="1.0" encoding="UTF-8" standalone="no"?>
<!-- Created with Inkscape (http://www.inkscape.org/) -->

<svg
   xmlns:dc="http://purl.org/dc/elements/1.1/"
   xmlns:cc="http://creativecommons.org/ns#"
   xmlns:rdf="http://www.w3.org/1999/02/22-rdf-syntax-ns#"
   xmlns:svg="http://www.w3.org/2000/svg"
   xmlns="http://www.w3.org/2000/svg"
   xmlns:sodipodi="http://sodipodi.sourceforge.net/DTD/sodipodi-0.dtd"
   xmlns:inkscape="http://www.inkscape.org/namespaces/inkscape"
   width="44.837193mm"
   height="44.459217mm"
   viewBox="0 0 44.837193 44.459217"
   version="1.1"
   id="svg4521"
   inkscape:version="0.92.1 r15371"
   sodipodi:docname="i2.svg">
  <defs
     id="defs4515" />
  <sodipodi:namedview
     id="base"
     pagecolor="#ffffff"
     bordercolor="#666666"
     borderopacity="1.0"
     inkscape:pageopacity="0.0"
     inkscape:pageshadow="2"
     inkscape:zoom="1.4"
     inkscape:cx="111.45605"
     inkscape:cy="85.209926"
     inkscape:document-units="mm"
     inkscape:current-layer="layer1"
     showgrid="false"
     fit-margin-top="0"
     fit-margin-left="0"
     fit-margin-right="0"
     fit-margin-bottom="0"
     inkscape:window-width="1536"
     inkscape:window-height="793"
     inkscape:window-x="-8"
     inkscape:window-y="-8"
     inkscape:window-maximized="1" />
  <metadata
     id="metadata4518">
    <rdf:RDF>
      <cc:Work
         rdf:about="">
        <dc:format>image/svg+xml</dc:format>
        <dc:type
           rdf:resource="http://purl.org/dc/dcmitype/StillImage" />
        <dc:title></dc:title>
      </cc:Work>
    </rdf:RDF>
  </metadata>
  <g
     inkscape:label="Layer 1"
     inkscape:groupmode="layer"
     id="layer1"
     transform="translate(-98.722773,-223.74361)">
    <g
       transform="translate(7.1815456,24.001474)"
       id="g5091">
      <ellipse
         ry="22.087467"
         rx="22.276455"
         cy="221.97174"
         cx="113.95982"
         id="path4485"
         style="opacity:1;fill:#d8bb8e;fill-opacity:1;stroke:#ffffff;stroke-width:0.2842817;stroke-miterlimit:4;stroke-dasharray:none;stroke-opacity:1" />
      <ellipse
         ry="20.022736"
         rx="19.928242"
         cy="222.16071"
         cx="113.67635"
         id="path4485-9"
         style="opacity:1;fill:#d8bb8e;fill-opacity:1;stroke:#ffffff;stroke-width:0.25600541;stroke-miterlimit:4;stroke-dasharray:none;stroke-opacity:1" />
    </g>
    <path
       style="fill:#ffffff;fill-opacity:1;stroke-width:0.24580447"
       d="m 114.84858,260.1505 c -1.90744,-0.48878 -3.93179,-1.64053 -5.26839,-2.99744 -1.21792,-1.23641 -2.43018,-3.27101 -2.43018,-4.07869 0,-1.14901 3.21064,-2.94493 6.16636,-3.44926 4.40561,-0.7517 9.35411,1.57948 11.42753,5.38338 0.4149,0.76118 0.77397,1.4196 0.79793,1.46316 0.0239,0.0436 0.94778,-0.1302 2.05295,-0.38613 2.15602,-0.49928 2.39432,-0.48278 2.39432,0.16583 0,0.44809 -0.91228,0.77887 -3.28825,1.19228 -0.81193,0.14128 -1.73853,0.53237 -2.46232,1.03926 -2.45457,1.71903 -6.43239,2.42546 -9.38995,1.66761 z m 6.85055,-1.66087 c 1.42377,-0.62773 1.45556,-0.66062 0.71971,-0.74481 -3.2818,-0.37546 -7.82688,-1.86894 -7.82688,-2.57185 0,-0.5482 0.76782,-0.63471 1.75551,-0.1978 1.88574,0.83416 3.80636,1.32246 5.7506,1.46203 1.09384,0.0785 1.98879,0.0699 1.98879,-0.0192 0,-0.49478 -1.21447,-2.2117 -2.21159,-3.12654 -2.2405,-2.05564 -5.90704,-3.06341 -8.85535,-2.43395 -1.52659,0.32593 -3.5776,1.25265 -4.22501,1.90901 -0.3895,0.39487 -0.3793,0.50104 0.14315,1.49124 1.20019,2.27469 3.81187,4.23045 6.49598,4.86451 1.62205,0.38317 4.65599,0.0768 6.26509,-0.63261 z m 11.34568,-6.20407 c -4.65935,-1.62347 -7.67189,-6.32171 -6.89916,-10.75969 0.3145,-1.80629 0.7373,-2.81641 1.83694,-4.38866 l 0.79151,-1.13169 -0.60472,-0.63705 c -0.33261,-0.35037 -0.99905,-0.98941 -1.48099,-1.4201 -0.79042,-0.70634 -0.83739,-0.8187 -0.47958,-1.14699 0.35781,-0.32829 0.48094,-0.30497 1.25689,0.23805 0.47311,0.33108 1.20556,1.02386 1.62765,1.53949 0.51427,0.62824 1.21742,1.10882 2.1315,1.45683 6.333,2.41113 8.67748,9.73392 4.80005,14.99259 -1.19907,1.62621 -1.52566,1.76398 -2.98009,1.25722 z m 2.0625,-2.06895 c 2.2596,-3.1299 2.03432,-7.48834 -0.54126,-10.47197 -0.77829,-0.90159 -2.63455,-2.30558 -3.04829,-2.30558 -0.10487,0 0.13683,0.77381 0.5371,1.71959 0.87917,2.07732 1.52026,5.6795 1.08231,6.08132 -0.54681,0.50169 -1.09512,0.0371 -1.09512,-0.92793 0,-1.25098 -0.85707,-4.21914 -1.67807,-5.8114 -0.78433,-1.52113 -1.03241,-1.47849 -2.04293,0.35114 -1.88347,3.41018 -1.12231,7.59206 1.88183,10.33895 1.10916,1.01417 3.10904,2.13901 3.80378,2.13944 0.16313,1.1e-4 0.65842,-0.501 1.10065,-1.11356 z m -29.17624,-2.82234 c -0.45284,-0.14926 -0.40149,-0.72233 0.23051,-2.57273 0.41961,-1.22852 0.55752,-2.26081 0.57739,-4.32169 0.0247,-2.55938 0.0723,-2.79427 0.86982,-4.29032 1.16714,-2.1894 2.91583,-3.76557 5.37123,-4.84129 1.90548,-0.83479 2.11821,-0.87483 4.6479,-0.87483 3.09494,0 3.24288,0.0919 3.52883,2.19175 0.32802,2.40871 -0.84886,6.16657 -1.93121,6.16657 -0.67161,0 -0.66454,-0.36697 0.0346,-1.79477 0.70594,-1.44169 0.84144,-4.89359 0.20758,-5.28826 -0.21185,-0.1319 -1.25917,-0.19993 -2.32923,-0.1513 -4.8709,0.22137 -8.83963,3.64699 -9.12996,7.88054 -0.10723,1.56353 -0.10158,1.58054 0.33264,1.00191 0.24294,-0.32373 1.31812,-1.39445 2.38929,-2.37937 1.94831,-1.79144 3.40074,-2.70853 3.86903,-2.44299 0.51853,0.29402 0.20893,0.80693 -0.96986,1.60675 -2.07863,1.41037 -4.93991,4.40004 -4.93991,5.16156 0,0.41129 4.12214,0.0477 5.41505,-0.47766 1.33445,-0.54221 2.10208,-0.37667 1.62163,0.34972 -0.51672,0.78122 -3.3355,1.48455 -5.68793,1.41925 l -2.11562,-0.0587 -0.36636,0.84169 c -0.2015,0.46293 -0.44521,1.2273 -0.54158,1.69859 -0.18926,0.92559 -0.57453,1.34349 -1.08384,1.17562 z m 11.09373,-6.66645 c -0.0996,-0.14795 -0.0605,-0.37978 0.0871,-0.51519 0.34487,-0.31641 1.14892,-0.0404 1.00861,0.34621 -0.14284,0.39359 -0.86901,0.50558 -1.09575,0.16898 z"
       id="path5676"
       inkscape:connector-curvature="0" />
  </g>
</svg>
