<?xml version="1.0" encoding="UTF-8" standalone="no"?>
<!-- Created with Inkscape (http://www.inkscape.org/) -->

<svg
   xmlns:dc="http://purl.org/dc/elements/1.1/"
   xmlns:cc="http://creativecommons.org/ns#"
   xmlns:rdf="http://www.w3.org/1999/02/22-rdf-syntax-ns#"
   xmlns:svg="http://www.w3.org/2000/svg"
   xmlns="http://www.w3.org/2000/svg"
   xmlns:sodipodi="http://sodipodi.sourceforge.net/DTD/sodipodi-0.dtd"
   xmlns:inkscape="http://www.inkscape.org/namespaces/inkscape"
   width="44.837193mm"
   height="44.459217mm"
   viewBox="0 0 44.837193 44.459217"
   version="1.1"
   id="svg5684"
   inkscape:version="0.92.1 r15371"
   sodipodi:docname="i3.svg">
  <defs
     id="defs5678" />
  <sodipodi:namedview
     id="base"
     pagecolor="#ffffff"
     bordercolor="#666666"
     borderopacity="1.0"
     inkscape:pageopacity="0.0"
     inkscape:pageshadow="2"
     inkscape:zoom="0.98994949"
     inkscape:cx="58.330933"
     inkscape:cy="31.622858"
     inkscape:document-units="mm"
     inkscape:current-layer="layer1"
     showgrid="false"
     fit-margin-top="0"
     fit-margin-left="0"
     fit-margin-right="0"
     fit-margin-bottom="0"
     inkscape:window-width="1536"
     inkscape:window-height="793"
     inkscape:window-x="-8"
     inkscape:window-y="-8"
     inkscape:window-maximized="1" />
  <metadata
     id="metadata5681">
    <rdf:RDF>
      <cc:Work
         rdf:about="">
        <dc:format>image/svg+xml</dc:format>
        <dc:type
           rdf:resource="http://purl.org/dc/dcmitype/StillImage" />
        <dc:title></dc:title>
      </cc:Work>
    </rdf:RDF>
  </metadata>
  <g
     inkscape:label="Layer 1"
     inkscape:groupmode="layer"
     id="layer1"
     transform="translate(-22.182595,-233.19301)">
    <g
       transform="translate(-69.358633,33.450878)"
       id="g5091">
      <ellipse
         ry="22.087467"
         rx="22.276455"
         cy="221.97174"
         cx="113.95982"
         id="path4485"
         style="opacity:1;fill:#d8bb8e;fill-opacity:1;stroke:#ffffff;stroke-width:0.2842817;stroke-miterlimit:4;stroke-dasharray:none;stroke-opacity:1" />
      <ellipse
         ry="20.022736"
         rx="19.928242"
         cy="222.16071"
         cx="113.67635"
         id="path4485-9"
         style="opacity:1;fill:#d8bb8e;fill-opacity:1;stroke:#ffffff;stroke-width:0.25600541;stroke-miterlimit:4;stroke-dasharray:none;stroke-opacity:1" />
    </g>
    <path
       style="fill:#ffffff;fill-opacity:1;stroke-width:0.26195341"
       d="m 42.062955,270.93043 c -1.350868,-1.48892 -0.97274,-3.55917 0.803651,-4.39999 2.205942,-1.04414 4.559374,1.16121 3.623171,3.3952 -0.447935,1.06887 -1.134217,1.64053 -1.514319,1.26139 -0.205036,-0.20452 -0.128382,-0.48271 0.273401,-0.99221 0.700441,-0.88821 0.703899,-1.42875 0.01471,-2.30269 -0.360468,-0.45711 -0.795866,-0.68934 -1.292388,-0.68934 -0.816599,0 -1.835994,1.02526 -1.835994,1.84657 0,0.25734 0.295071,0.81767 0.655712,1.24519 0.360642,0.42752 0.655712,0.8486 0.655712,0.93575 0,0.34623 -0.992657,0.13109 -1.383659,-0.29987 z m -9.23888,-3.50805 c -1.941899,-1.06522 -1.934167,-3.77729 0.01375,-4.82366 1.885689,-1.01295 4.280588,0.66775 3.95098,2.77272 -0.281557,1.7981 -2.414354,2.90138 -3.964732,2.05094 z m 2.607977,-1.32429 c 1.388166,-1.97688 -1.36295,-3.93824 -2.806437,-2.0008 -0.872453,1.171 -0.04516,2.58226 1.513747,2.58226 0.616573,0 1.008034,-0.17609 1.29269,-0.58146 z m 17.325681,1.32429 c -1.9419,-1.06522 -1.934168,-3.77729 0.01375,-4.82366 1.885693,-1.01295 4.280592,0.66775 3.950983,2.77272 -0.281558,1.7981 -2.414356,2.90138 -3.96473,2.05094 z m 2.607974,-1.32429 c 1.388168,-1.97688 -1.362949,-3.93824 -2.806439,-2.0008 -0.87245,1.171 -0.04513,2.58226 1.51375,2.58226 0.616572,0 1.008031,-0.17609 1.292689,-0.58146 z M 39.69898,263.90066 c -0.376537,-0.37559 -0.202345,-3.16136 0.219514,-3.51058 0.356866,-0.29542 0.279144,-0.46599 -0.640476,-1.40555 -1.326227,-1.35499 -1.601672,-2.10421 -1.601672,-4.35664 0,-1.96244 0.494188,-2.86082 1.57371,-2.86082 0.484728,0 0.52457,-0.17441 0.52457,-2.29638 0,-2.73995 0.349158,-3.4593 1.679074,-3.4593 1.290531,0 1.730631,0.65391 1.730631,2.57141 0,1.51212 0.03842,1.61455 0.605581,1.61455 0.33307,0 0.83469,0.17284 1.114711,0.38411 0.280022,0.21126 0.892724,0.38785 1.361558,0.39243 0.468834,0.004 1.058975,0.21435 1.311426,0.46616 0.265238,0.26457 0.750629,0.42413 1.149851,0.37799 0.496105,-0.0573 0.847298,0.11853 1.24585,0.62393 0.84358,1.06973 0.785507,4.18344 -0.113984,6.11091 -0.579635,1.24208 -0.612579,1.45117 -0.259721,1.64814 0.303535,0.16944 0.404136,0.67825 0.404136,2.04395 v 1.81836 h -3.016274 c -2.506281,0 -3.01628,-0.0664 -3.01628,-0.39244 0,-0.32129 0.451713,-0.39243 2.491707,-0.39243 H 48.9546 v -1.04649 -1.04649 h -4.19656 -4.196559 v 1.0307 c 0,1.00217 0.02721,1.03294 0.983569,1.11189 0.540962,0.0447 0.983568,0.19893 0.983568,0.34282 0,0.30198 -2.549682,0.50902 -2.829638,0.22977 z m 9.114997,-5.25345 c 0.588766,-1.28277 0.67414,-1.78638 0.609375,-3.59442 -0.06297,-1.75761 -0.150518,-2.11696 -0.533562,-2.18996 -0.299178,-0.057 -0.550097,0.15367 -0.722897,0.60702 -0.358412,0.94032 -0.899104,0.69207 -0.997207,-0.45785 -0.04401,-0.51613 -0.247171,-1.00238 -0.451407,-1.08055 -0.548721,-0.21003 -1.173384,0.54808 -1.173384,1.42405 0,0.49434 -0.134724,0.76618 -0.379721,0.76618 -0.273152,0 -0.401969,-0.38548 -0.458998,-1.37352 -0.07328,-1.26958 -0.128897,-1.37351 -0.734991,-1.37351 -0.606094,0 -0.661711,0.10393 -0.73499,1.37351 -0.05651,0.97912 -0.186878,1.37352 -0.454002,1.37352 -0.517952,0 -0.639127,-0.71078 -0.713637,-4.18596 -0.06031,-2.81279 -0.09866,-3.00865 -0.589078,-3.00865 -0.498057,0 -0.531198,0.21802 -0.655712,4.31361 -0.116726,3.83943 -0.181601,4.32326 -0.590141,4.40136 -0.396414,0.0758 -0.458999,-0.12892 -0.458999,-1.50118 0,-1.63887 -0.188938,-1.88633 -0.899262,-1.1778 -0.472339,0.47115 -0.560393,2.56702 -0.152779,3.63642 0.142661,0.37428 0.791816,1.21921 1.442567,1.87764 0.650751,0.65842 1.183184,1.30169 1.183184,1.4295 0,0.1278 1.525715,0.23237 3.390476,0.23237 h 3.390475 z m -19.924176,-1.11015 c -1.016821,-0.41512 -1.57371,-1.31701 -1.57371,-2.54863 0,-0.99237 0.13085,-1.28791 0.856564,-1.9347 0.547509,-0.48797 1.143674,-0.76341 1.652306,-0.76341 1.524073,0 3.041625,1.23955 2.355474,1.92397 -0.18169,0.18122 -0.463116,0.0833 -0.87793,-0.30537 -1.244817,-1.16649 -3.068417,-0.46883 -3.068417,1.17389 0,1.55607 1.862184,2.21332 3.068417,1.08298 0.488448,-0.45771 0.67538,-0.50652 0.934902,-0.24412 0.258429,0.26129 0.150224,0.484 -0.532181,1.09535 -0.86689,0.77662 -1.775749,0.9445 -2.815425,0.52004 z m 27.284959,-0.60872 c -0.667196,-0.66551 -0.925319,-1.15285 -0.925319,-1.74701 0,-2.54466 2.65184,-3.79283 4.520277,-2.1276 0.730072,0.65067 0.856561,0.93955 0.856561,1.95622 0,1.52657 -0.869639,2.48596 -2.444362,2.69664 -0.978018,0.13084 -1.17064,0.0561 -2.007157,-0.77825 z m 3.053872,-0.62342 c 0.59765,-0.5395 0.621724,-1.85464 0.04558,-2.48967 -0.989474,-1.0906 -3.041195,-0.26611 -3.041195,1.22211 0,1.46234 1.892667,2.2632 2.995627,1.26756 z M 32.148187,247.078 c -1.450025,-1.44636 -0.675696,-4.15875 1.31152,-4.59411 1.085922,-0.23791 2.523493,0.44525 3.042149,1.44569 1.388825,2.67891 -2.213036,5.28365 -4.353669,3.14842 z m 3.001081,-0.56236 c 1.279965,-1.00428 0.584377,-3.12047 -1.02569,-3.12047 -0.650774,0 -1.955215,1.02796 -1.955215,1.5408 0,0.67508 0.577337,1.63691 1.110895,1.85073 0.886611,0.35529 1.113675,0.32237 1.87001,-0.27106 z m 16.932578,0.56236 c -1.05131,-1.04865 -1.069941,-2.55829 -0.04543,-3.67797 0.747537,-0.81695 2.03271,-1.18672 2.03271,-0.58484 0,0.18463 -0.291505,0.48066 -0.647783,0.65784 -0.356286,0.17718 -0.816235,0.6215 -1.022121,0.98737 -0.321513,0.57137 -0.322628,0.77116 -0.008,1.41582 0.849141,1.73947 3.271504,1.22899 3.23436,-0.68159 -0.0094,-0.48608 -0.06847,-1.05339 -0.131144,-1.26068 -0.231959,-0.76717 0.727456,-0.56994 1.054121,0.2167 1.09893,2.64633 -2.429991,4.95903 -4.46682,2.92735 z m -8.795814,-3.34619 c -0.304706,-0.0561 -0.881435,-0.44286 -1.28162,-0.85951 -0.56128,-0.58437 -0.727609,-1.01091 -0.727609,-1.86591 0,-2.88295 4.065172,-3.59781 5.189948,-0.91265 0.449875,1.07398 0.235952,2.05781 -0.619948,2.85114 -0.732351,0.67881 -1.637285,0.9569 -2.560771,0.78693 z m 1.877358,-1.50205 c 0.354085,-0.35319 0.643793,-0.88833 0.643793,-1.18919 0,-0.70586 -1.128354,-1.83136 -1.835998,-1.83136 -0.707644,0 -1.835994,1.1255 -1.835994,1.83136 0,0.70585 1.12835,1.83135 1.835994,1.83135 0.301628,0 0.83812,-0.28897 1.192205,-0.64216 z"
       id="path6261"
       inkscape:connector-curvature="0" />
  </g>
</svg>
